<svg xmlns="http://www.w3.org/2000/svg" viewBox="0 0 1031 380" fill="#8a80cb"><path fill-rule="evenodd" d="M66.7,288.9L66.3,289.0L63.2,285.9L58.3,280.1L53.8,274.0L49.6,267.0L46.8,261.2L43.6,253.0L41.5,245.6L40.2,237.3L40.2,222.5L40.6,219.2L41.9,212.6L45.6,201.5L49.3,194.1L54.6,185.9L60.9,178.9L65.5,174.6L71.2,170.1L79.4,164.7L94.2,157.3L107.3,152.8L116.8,150.3L127.9,148.2L142.6,146.6L168.5,146.0L185.7,146.6L210.0,148.6L214.9,148.6L216.5,149.0L233.8,149.4L242.0,148.6L252.3,146.1L259.2,143.3L266.2,139.2L269.5,136.7L276.2,129.9L279.5,125.4L283.2,118.4L286.1,110.6L288.2,101.9L289.0,94.9L289.0,85.0L287.4,71.9L286.5,68.2L284.1,60.8L281.5,55.4L277.9,49.6L274.0,45.1L268.7,40.4L264.2,37.5L259.6,35.4L254.3,33.8L248.2,33.0L242.0,33.1L236.2,34.2L231.7,35.9L226.4,38.8L222.7,41.6L218.9,45.5L216.0,49.6L214.0,53.3L210.2,63.6L208.6,70.6L207.3,78.0L206.5,85.0L205.8,96.6L205.8,117.1L206.5,133.2L207.2,140.6L204.6,140.8L182.1,138.8L169.3,138.3L167.9,119.6L165.4,102.7L160.5,84.2L155.2,70.6L149.8,59.9L146.9,55.0L142.0,47.6L137.9,42.2L132.0,35.6L126.6,30.5L121.3,26.0L113.9,20.6L113.3,20.0L113.5,19.8L276.5,19.8L287.6,20.6L297.4,22.3L304.0,23.9L312.2,26.8L317.9,29.3L324.1,32.6L329.9,36.3L335.2,40.4L341.5,46.3L345.6,51.3L349.3,56.6L353.5,64.5L355.1,68.6L357.1,75.2L358.4,81.7L358.8,85.4L358.8,94.9L357.9,101.5L356.7,106.4L354.2,113.8L351.8,119.2L349.7,122.9L345.2,129.5L340.7,134.8L335.6,139.9L326.2,147.4L316.3,153.1L305.6,157.7L292.1,161.4L282.2,163.0L272.4,163.8L205.0,163.9L184.5,165.6L169.7,168.4L156.6,172.2L145.1,176.6L131.1,183.7L124.6,187.8L117.6,192.8L111.0,198.1L106.1,202.8L99.0,210.2L94.9,215.1L87.4,225.8L82.1,235.3L78.4,243.1L72.8,257.9L69.8,268.2L68.1,276.0L66.9,283.8L66.7,288.9ZM186.6,359.8L145.7,303.6L122.7,272.7L120.4,269.4L120.2,268.6L129.5,260.2L138.7,250.1L144.9,241.9L151.9,230.3L157.2,219.2L159.6,213.1L162.9,203.2L166.6,188.8L167.9,181.8L168.3,176.8L178.8,174.3L189.4,172.6L196.8,172.1L197.7,171.7L209.1,171.3L209.8,171.9L209.8,175.6L211.0,184.6L214.3,198.2L219.6,213.9L225.8,227.5L232.8,239.4L239.7,248.9L245.1,255.0L251.8,261.8L259.9,268.6L225.8,315.1L194.4,359.0L193.9,358.8L194.1,331.6L193.8,275.6L197.4,272.3L198.3,270.3L198.7,267.4L197.9,264.5L196.2,262.0L194.0,260.3L191.5,259.4L189.4,259.4L186.6,260.2L183.1,263.3L181.9,266.2L181.9,269.4L183.2,272.3L186.7,275.6L186.8,359.6L186.6,359.8ZM172.4,324.2L165.7,309.8L159.6,298.3L153.1,287.6L141.6,271.1L141.6,270.7L148.1,263.3L153.9,255.4L158.4,248.0L162.1,240.6L165.8,231.6L168.7,222.5L171.1,211.8L171.0,209.7L169.5,214.7L165.4,225.0L161.3,233.6L156.8,241.5L150.6,250.5L144.8,257.9L139.9,263.3L133.4,269.4L133.4,269.9L155.6,299.9L167.4,316.8L171.6,323.8L172.2,324.4L172.4,324.2Z"/><g transform="translate(352.000 275.000) scale(0.16000 -0.16000)"><path d="M446 530Q446 669 486.0 762.0Q526 855 590.0 901.5Q654 948 726 948Q816 948 864.5 893.0Q913 838 913 731Q913 629 869.0 580.0Q825 531 757 531Q690 531 657.5 566.5Q625 602 623 668V705Q622 732 610.5 747.0Q599 762 573 762Q547 762 524.0 737.5Q501 713 487.0 662.5Q473 612 473 532ZM461 895 473 630V131Q473 108 481.5 96.0Q490 84 514 80L603 64Q620 61 627.5 53.0Q635 45 635 31Q635 16 625.0 8.0Q615 0 595 0H92Q71 0 61.0 8.5Q51 17 51 31Q51 41 58.0 49.5Q65 58 79 63L116 72Q131 77 137.5 89.0Q144 101 144 125V741Q144 760 138.5 769.0Q133 778 120 780L74 783Q61 786 55.5 793.0Q50 800 50 811Q50 823 57.5 831.0Q65 839 84 845L345 921Q381 935 397.5 939.0Q414 943 425 943Q441 943 449.5 931.5Q458 920 461 895Z"/></g><g transform="translate(501.281 275.000) scale(0.16000 -0.16000)"><path d="M570 947Q721 947 835.5 885.5Q950 824 1014.5 713.5Q1079 603 1079 459Q1079 320 1012.0 211.0Q945 102 828.0 39.5Q711 -23 557 -23Q406 -23 291.5 38.5Q177 100 113.0 209.5Q49 319 49 462Q49 602 116.0 711.5Q183 821 300.0 884.0Q417 947 570 947ZM634 52Q685 60 714.5 110.0Q744 160 749.5 254.0Q755 348 732 487Q710 624 675.0 712.0Q640 800 594.5 840.0Q549 880 495 871Q444 863 414.0 812.5Q384 762 379.5 668.5Q375 575 398 436Q420 300 455.0 212.0Q490 124 535.5 84.0Q581 44 634 52Z"/></g><g transform="translate(681.766 275.000) scale(0.16000 -0.16000)"><path d="M447 878Q385 878 350.5 848.0Q316 818 316 770Q316 739 330.0 712.5Q344 686 382.5 664.0Q421 642 493 623Q642 587 723.5 537.5Q805 488 837.0 423.5Q869 359 869 279Q869 136 770.5 56.5Q672 -23 492 -23Q425 -23 383.0 -11.5Q341 0 316.5 11.5Q292 23 278 23Q260 23 238.5 11.5Q217 0 196.0 -12.0Q175 -24 159 -24Q146 -24 138.0 -16.0Q130 -8 124 13L70 254Q63 283 66.5 299.5Q70 316 85 322Q102 328 114.5 322.5Q127 317 138 299Q193 205 246.5 149.5Q300 94 356.5 69.5Q413 45 475 45Q546 45 582.5 76.5Q619 108 619 161Q619 195 602.0 222.5Q585 250 538.5 273.5Q492 297 403 318Q278 347 204.0 394.0Q130 441 98.0 504.5Q66 568 66 649Q66 740 112.5 807.0Q159 874 239.5 911.0Q320 948 422 948Q487 948 529.0 934.5Q571 921 597.0 907.5Q623 894 639 894Q656 894 677.0 907.0Q698 920 719.0 932.5Q740 945 756 945Q769 945 778.5 935.5Q788 926 792 903L831 688Q837 659 833.5 644.0Q830 629 813 622Q799 615 786.5 622.5Q774 630 761 649Q684 774 605.0 826.0Q526 878 447 878Z"/></g><g transform="translate(829.609 275.000) scale(0.16000 -0.16000)"><path d="M965 557Q965 519 943.5 498.0Q922 477 882 477H266V535H602Q639 535 639 571Q639 728 598.5 801.0Q558 874 499 874Q454 874 418.5 841.5Q383 809 363.0 741.0Q343 673 343 567Q343 371 428.5 276.5Q514 182 657 182Q748 182 813.0 221.5Q878 261 904 335Q916 350 924.0 355.0Q932 360 939 360Q950 360 955.5 349.5Q961 339 961 323Q959 228 902.5 149.0Q846 70 749.0 23.5Q652 -23 527 -23Q387 -23 278.0 35.0Q169 93 107.0 198.0Q45 303 45 442Q45 595 104.5 708.5Q164 822 275.5 885.0Q387 948 541 948Q675 948 770.0 897.0Q865 846 915.0 758.0Q965 670 965 557Z"/></g></svg>
