<svg xmlns="http://www.w3.org/2000/svg" viewBox="0 0 1024 1024"><style>path{fill:#8a80cb}@media(prefers-color-scheme:dark){path{fill:#b6abe0}}</style><path fill-rule="evenodd" d="M188.0,752.4L187.0,752.5L179.5,745.0L167.6,731.0L156.7,716.0L146.5,699.0L139.5,685.0L131.8,665.0L126.7,647.0L123.5,627.0L123.5,591.0L124.5,583.0L127.6,567.0L136.6,540.0L145.6,522.0L158.6,502.0L173.9,485.0L185.0,474.6L199.0,463.6L219.0,450.6L255.0,432.6L287.0,421.5L310.0,415.6L337.0,410.5L373.0,406.6L436.0,405.1L478.0,406.5L537.0,411.4L549.0,411.5L553.0,412.5L595.0,413.5L615.0,411.4L640.0,405.3L657.0,398.5L674.0,388.5L682.0,382.5L698.4,366.0L706.3,355.0L715.4,338.0L722.5,319.0L727.5,298.0L729.5,281.0L729.5,257.0L725.5,225.0L723.5,216.0L717.4,198.0L711.3,185.0L702.5,171.0L693.0,159.9L680.0,148.5L669.0,141.6L658.0,136.5L645.0,132.6L630.0,130.6L615.0,130.7L601.0,133.6L590.0,137.5L577.0,144.6L568.0,151.6L558.7,161.0L551.6,171.0L546.8,180.0L537.6,205.0L533.5,222.0L530.6,240.0L528.5,257.0L526.8,285.0L526.8,335.0L528.5,374.0L530.3,392.0L524.0,392.4L469.0,387.5L438.0,386.5L434.5,341.0L428.4,300.0L416.4,255.0L403.5,222.0L390.5,196.0L383.4,184.0L371.5,166.0L361.4,153.0L347.2,137.0L334.0,124.5L321.0,113.6L303.0,100.5L301.5,99.0L302.0,98.5L699.0,98.5L726.0,100.5L750.0,104.5L766.0,108.6L786.0,115.5L800.0,121.6L815.0,129.5L829.0,138.5L842.0,148.5L857.4,163.0L867.5,175.0L876.5,188.0L886.5,207.0L890.5,217.0L895.4,233.0L898.5,249.0L899.5,258.0L899.5,281.0L897.3,297.0L894.4,309.0L888.4,327.0L882.4,340.0L877.5,349.0L866.5,365.0L855.4,378.0L843.0,390.2L820.0,408.4L796.0,422.4L770.0,433.5L737.0,442.4L713.0,446.4L689.0,448.5L525.0,448.5L475.0,452.7L439.0,459.5L407.0,468.8L379.0,479.5L345.0,496.6L329.0,506.5L312.0,518.7L296.0,531.7L284.0,543.0L266.7,561.0L256.7,573.0L238.5,599.0L225.6,622.0L216.5,641.0L202.8,677.0L195.5,702.0L191.5,721.0L188.6,740.0L188.0,752.4ZM480.0,924.5L380.5,788.0L324.5,713.0L318.8,705.0L318.3,703.0L341.0,682.4L363.3,658.0L378.5,638.0L395.5,610.0L408.4,583.0L414.4,568.0L422.5,544.0L431.4,509.0L434.5,492.0L435.5,480.0L461.0,473.9L487.0,469.6L505.0,468.4L507.0,467.6L535.0,466.5L536.5,468.0L536.6,477.0L539.6,499.0L547.6,532.0L560.6,570.0L575.5,603.0L592.6,632.0L609.5,655.0L622.5,670.0L639.0,686.5L658.5,703.0L575.6,816.0L499.0,922.7L497.8,922.0L498.3,856.0L497.6,720.0L506.3,712.0L508.5,707.0L509.5,700.0L507.5,693.0L503.4,687.0L498.0,682.7L492.0,680.6L487.0,680.5L480.0,682.6L471.5,690.0L468.6,697.0L468.6,705.0L471.7,712.0L480.4,720.0L480.6,924.0L480.0,924.5ZM445.5,838.0L429.3,803.0L414.4,775.0L398.5,749.0L370.5,709.0L370.5,708.0L386.4,690.0L400.3,671.0L411.4,653.0L420.5,635.0L429.4,613.0L436.4,591.0L442.4,565.0L442.0,559.8L438.4,572.0L428.5,597.0L418.4,618.0L407.5,637.0L392.5,659.0L378.3,677.0L366.4,690.0L350.5,705.0L350.5,706.0L404.5,779.0L433.3,820.0L443.5,837.0L445.0,838.5L445.5,838.0Z"/></svg>
