<svg xmlns="http://www.w3.org/2000/svg" viewBox="0 0 1031 380">
<g fill="#8a80cb">
<path fill-rule="evenodd" d="M66.7,288.9L66.3,289.0L63.2,285.9L58.3,280.1L53.8,274.0L49.6,267.0L46.8,261.2L43.6,253.0L41.5,245.6L40.2,237.3L40.2,222.5L40.6,219.2L41.9,212.6L45.6,201.5L49.3,194.1L54.6,185.9L60.9,178.9L65.5,174.6L71.2,170.1L79.4,164.7L94.2,157.3L107.3,152.8L116.8,150.3L127.9,148.2L142.6,146.6L168.5,146.0L185.7,146.6L210.0,148.6L214.9,148.6L216.5,149.0L233.8,149.4L242.0,148.6L252.3,146.1L259.2,143.3L266.2,139.2L269.5,136.7L276.2,129.9L279.5,125.4L283.2,118.4L286.1,110.6L288.2,101.9L289.0,94.9L289.0,85.0L287.4,71.9L286.5,68.2L284.1,60.8L281.5,55.4L277.9,49.6L274.0,45.1L268.7,40.4L264.2,37.5L259.6,35.4L254.3,33.8L248.2,33.0L242.0,33.1L236.2,34.2L231.7,35.9L226.4,38.8L222.7,41.6L218.9,45.5L216.0,49.6L214.0,53.3L210.2,63.6L208.6,70.6L207.3,78.0L206.5,85.0L205.8,96.6L205.8,117.1L206.5,133.2L207.2,140.6L204.6,140.8L182.1,138.8L169.3,138.3L167.9,119.6L165.4,102.7L160.5,84.2L155.2,70.6L149.8,59.9L146.9,55.0L142.0,47.6L137.9,42.2L132.0,35.6L126.6,30.5L121.3,26.0L113.9,20.6L113.3,20.0L113.5,19.8L276.5,19.8L287.6,20.6L297.4,22.3L304.0,23.9L312.2,26.8L317.9,29.3L324.1,32.6L329.9,36.3L335.2,40.4L341.5,46.3L345.6,51.3L349.3,56.6L353.5,64.5L355.1,68.6L357.1,75.2L358.4,81.7L358.8,85.4L358.8,94.9L357.9,101.5L356.7,106.4L354.2,113.8L351.8,119.2L349.7,122.9L345.2,129.5L340.7,134.8L335.6,139.9L326.2,147.4L316.3,153.1L305.6,157.7L292.1,161.4L282.2,163.0L272.4,163.8L205.0,163.9L184.5,165.6L169.7,168.4L156.6,172.2L145.1,176.6L131.1,183.7L124.6,187.8L117.6,192.8L111.0,198.1L106.1,202.8L99.0,210.2L94.9,215.1L87.4,225.8L82.1,235.3L78.4,243.1L72.8,257.9L69.8,268.2L68.1,276.0L66.9,283.8L66.7,288.9ZM186.6,359.8L145.7,303.6L122.7,272.7L120.4,269.4L120.2,268.6L129.5,260.2L138.7,250.1L144.9,241.9L151.9,230.3L157.2,219.2L159.6,213.1L162.9,203.2L166.6,188.8L167.9,181.8L168.3,176.8L178.8,174.3L189.4,172.6L196.8,172.1L197.7,171.7L209.1,171.3L209.8,171.9L209.8,175.6L211.0,184.6L214.3,198.2L219.6,213.9L225.8,227.5L232.8,239.4L239.7,248.9L245.1,255.0L251.8,261.8L259.9,268.6L225.8,315.1L194.4,359.0L193.9,358.8L194.1,331.6L193.8,275.6L197.4,272.3L198.3,270.3L198.7,267.4L197.9,264.5L196.2,262.0L194.0,260.3L191.5,259.4L189.4,259.4L186.6,260.2L183.1,263.3L181.9,266.2L181.9,269.4L183.2,272.3L186.7,275.6L186.8,359.6L186.6,359.8ZM172.4,324.2L165.7,309.8L159.6,298.3L153.1,287.6L141.6,271.1L141.6,270.7L148.1,263.3L153.9,255.4L158.4,248.0L162.1,240.6L165.8,231.6L168.7,222.5L171.1,211.8L171.0,209.7L169.5,214.7L165.4,225.0L161.3,233.6L156.8,241.5L150.6,250.5L144.8,257.9L139.9,263.3L133.4,269.4L133.4,269.9L155.6,299.9L167.4,316.8L171.6,323.8L172.2,324.4L172.4,324.2Z"/><g transform="translate(352.000 275.000) scale(0.16000 -0.16000)"><path d="M446 530Q446 669 486.0 762.0Q526 855 590.0 901.5Q654 948 726 948Q816 948 864.5 893.0Q913 838 913 731Q913 629 869.0 580.0Q825 531 757 531Q690 531 657.5 566.5Q625 602 623 668V705Q622 732 610.5 747.0Q599 762 573 762Q547 762 524.0 737.5Q501 713 487.0 662.5Q473 612 473 532ZM461 895 473 630V131Q473 108 481.5 96.0Q490 84 514 80L603 64Q620 61 627.5 53.0Q635 45 635 31Q635 16 625.0 8.0Q615 0 595 0H92Q71 0 61.0 8.5Q51 17 51 31Q51 41 58.0 49.5Q65 58 79 63L116 72Q131 77 137.5 89.0Q144 101 144 125V741Q144 760 138.5 769.0Q133 778 120 780L74 783Q61 786 55.5 793.0Q50 800 50 811Q50 823 57.5 831.0Q65 839 84 845L345 921Q381 935 397.5 939.0Q414 943 425 943Q441 943 449.5 931.5Q458 920 461 895Z"/></g><g transform="translate(501.281 275.000) scale(0.16000 -0.16000)"><path d="M570 947Q721 947 835.5 885.5Q950 824 1014.5 713.5Q1079 603 1079 459Q1079 320 1012.0 211.0Q945 102 828.0 39.5Q711 -23 557 -23Q406 -23 291.5 38.5Q177 100 113.0 209.5Q49 319 49 462Q49 602 116.0 711.5Q183 821 300.0 884.0Q417 947 570 947ZM634 52Q685 60 714.5 110.0Q744 160 749.5 254.0Q755 348 732 487Q710 624 675.0 712.0Q640 800 594.5 840.0Q549 880 495 871Q444 863 414.0 812.5Q384 762 379.5 668.5Q375 575 398 436Q420 300 455.0 212.0Q490 124 535.5 84.0Q581 44 634 52Z"/></g><g transform="translate(681.766 275.000) scale(0.16000 -0.16000)"><path d="M447 878Q385 878 350.5 848.0Q316 818 316 770Q316 739 330.0 712.5Q344 686 382.5 664.0Q421 642 493 623Q642 587 723.5 537.5Q805 488 837.0 423.5Q869 359 869 279Q869 136 770.5 56.5Q672 -23 492 -23Q425 -23 383.0 -11.5Q341 0 316.5 11.5Q292 23 278 23Q260 23 238.5 11.5Q217 0 196.0 -12.0Q175 -24 159 -24Q146 -24 138.0 -16.0Q130 -8 124 13L70 254Q63 283 66.5 299.5Q70 316 85 322Q102 328 114.5 322.5Q127 317 138 299Q193 205 246.5 149.5Q300 94 356.5 69.5Q413 45 475 45Q546 45 582.5 76.5Q619 108 619 161Q619 195 602.0 222.5Q585 250 538.5 273.5Q492 297 403 318Q278 347 204.0 394.0Q130 441 98.0 504.5Q66 568 66 649Q66 740 112.5 807.0Q159 874 239.5 911.0Q320 948 422 948Q487 948 529.0 934.5Q571 921 597.0 907.5Q623 894 639 894Q656 894 677.0 907.0Q698 920 719.0 932.5Q740 945 756 945Q769 945 778.5 935.5Q788 926 792 903L831 688Q837 659 833.5 644.0Q830 629 813 622Q799 615 786.5 622.5Q774 630 761 649Q684 774 605.0 826.0Q526 878 447 878Z"/></g><g transform="translate(829.609 275.000) scale(0.16000 -0.16000)"><path d="M965 557Q965 519 943.5 498.0Q922 477 882 477H266V535H602Q639 535 639 571Q639 728 598.5 801.0Q558 874 499 874Q454 874 418.5 841.5Q383 809 363.0 741.0Q343 673 343 567Q343 371 428.5 276.5Q514 182 657 182Q748 182 813.0 221.5Q878 261 904 335Q916 350 924.0 355.0Q932 360 939 360Q950 360 955.5 349.5Q961 339 961 323Q959 228 902.5 149.0Q846 70 749.0 23.5Q652 -23 527 -23Q387 -23 278.0 35.0Q169 93 107.0 198.0Q45 303 45 442Q45 595 104.5 708.5Q164 822 275.5 885.0Q387 948 541 948Q675 948 770.0 897.0Q865 846 915.0 758.0Q965 670 965 557Z"/></g>
</g>
<g transform="translate(316.35 339.66)" fill="#d4a574">
<g transform="translate(0.00 0) scale(0.03748 -0.03748)"><path d="M341 719 532 150Q540 129 547.5 96.0Q555 63 553 40L618 44L616 0H399L400 33Q438 34 450.0 50.0Q462 66 460.0 88.0Q458 110 452 128L423 222L167 216L127 109Q118 85 111.5 71.0Q105 57 96 40L171 44L169 0H-14L-13 33Q12 34 30.0 49.5Q48 65 63.0 93.0Q78 121 93 158L319 719ZM307 580Q296 552 285.0 524.0Q274 496 263 468L183 259H412L347 459Q337 489 327.5 519.0Q318 549 307 580Z"/></g>
<g transform="translate(33.51 0) scale(0.03748 -0.03748)"><path d="M297 702Q394 702 457.5 679.5Q521 657 553.0 613.5Q585 570 585 506Q585 467 570.0 424.5Q555 382 518.0 345.5Q481 309 415.0 286.0Q349 263 246 263Q241 263 229.0 263.0Q217 263 207 264L199 119Q198 92 196.0 72.5Q194 53 192 40Q208 41 223.0 42.0Q238 43 253.5 43.5Q269 44 284 45L282 0H41L43 33Q81 35 96.0 50.5Q111 66 114.0 93.5Q117 121 118 156L141 588Q143 608 144.5 626.5Q146 645 148 660Q130 659 111.5 658.0Q93 657 75 656L78 700Q131 701 185.0 701.5Q239 702 297 702ZM293 663Q262 663 247.0 649.5Q232 636 228.0 610.5Q224 585 222 549L209 306Q228 304 242.0 303.5Q256 303 274 303Q331 303 379.5 325.0Q428 347 458.0 389.0Q488 431 491 489Q493 536 480.0 569.5Q467 603 440.5 623.5Q414 644 376.5 653.5Q339 663 293 663Z"/></g>
<g transform="translate(55.88 0) scale(0.03748 -0.03748)"><path d="M64 -271Q30 -269 9.0 -251.5Q-12 -234 -12 -208Q-12 -185 2.0 -173.5Q16 -162 29 -162Q74 -162 72 -214Q78 -217 83.0 -219.0Q88 -221 94 -221Q116 -222 139.5 -205.0Q163 -188 184.5 -162.5Q206 -137 222.5 -112.5Q239 -88 247 -75Q238 -17 226.0 44.5Q214 106 198.5 167.5Q183 229 164.5 286.5Q146 344 125 395Q118 412 107.0 430.0Q96 448 76 446Q57 444 47.5 416.0Q38 388 42 342L10 338Q7 365 9.5 395.0Q12 425 22.0 451.5Q32 478 51.0 494.5Q70 511 101 511Q135 511 156.5 493.0Q178 475 191.5 449.0Q205 423 214 398Q233 347 251.0 281.0Q269 215 282.5 146.5Q296 78 303 19H305Q333 68 359.0 127.0Q385 186 402.0 247.5Q419 309 419 363Q419 388 414.5 407.0Q410 426 404 434Q400 431 393.5 429.5Q387 428 379 428Q361 428 350.0 439.5Q339 451 339 467Q339 489 353.5 500.0Q368 511 386 511Q417 511 434.0 492.0Q451 473 458.5 444.0Q466 415 466 383Q466 317 447.0 248.0Q428 179 397.5 112.0Q367 45 333 -17Q283 -107 237.5 -164.0Q192 -221 149.0 -246.5Q106 -272 64 -271Z"/></g>
<g transform="translate(75.15 0) scale(0.03748 -0.03748)"><path d="M217 641 199 500H358L355 462L195 460Q191 418 185.5 373.5Q180 329 176.0 285.0Q172 241 169.0 200.5Q166 160 166 127Q166 108 168.5 87.5Q171 67 181.0 53.5Q191 40 213 40Q223 40 237.5 44.0Q252 48 270.0 63.0Q288 78 307 110L333 93Q304 42 270.5 15.5Q237 -11 189 -11Q150 -11 127.5 5.5Q105 22 95.0 49.0Q85 76 85 107Q85 145 88.0 199.5Q91 254 97.0 320.5Q103 387 111 459L22 458L25 500Q94 500 127.0 537.0Q160 574 179 641Z"/></g>
<g transform="translate(88.79 0) scale(0.03748 -0.03748)"><path d="M432 -11Q385 -11 368.0 14.0Q351 39 351 85Q351 113 355.5 151.5Q360 190 365.5 233.0Q371 276 375.5 320.0Q380 364 380 403Q380 415 376.0 429.0Q372 443 362.0 453.5Q352 464 332 464Q305 464 278.0 439.5Q251 415 226.5 373.0Q202 331 182.5 277.5Q163 224 152.0 166.5Q141 109 141 53Q141 38 141.5 25.5Q142 13 143 0H61Q60 7 60.0 12.5Q60 18 60 26Q60 53 63.0 109.0Q66 165 71.0 236.5Q76 308 82.5 383.0Q89 458 96.0 525.5Q103 593 110 639Q114 665 115.5 672.0Q117 679 119 692L49 688L53 728Q97 728 121.5 732.0Q146 736 159.0 742.0Q172 748 180 755H209Q205 730 200.0 699.0Q195 668 190.0 638.0Q185 608 182 585Q179 560 174.5 520.5Q170 481 165.5 437.5Q161 394 157.5 354.0Q154 314 152 288H155Q189 379 222.0 427.0Q255 475 287.5 493.0Q320 511 352 511Q412 511 437.0 472.5Q462 434 462 381Q462 326 455.0 268.5Q448 211 441.0 162.5Q434 114 434 85Q434 67 438.5 53.0Q443 39 461 39Q478 39 498.5 60.5Q519 82 534 136L559 129Q556 112 547.0 88.0Q538 64 522.5 41.5Q507 19 484.5 4.0Q462 -11 432 -11Z"/></g>
<g transform="translate(110.23 0) scale(0.03748 -0.03748)"><path d="M286 511Q340 511 383.0 485.5Q426 460 451.0 411.0Q476 362 476 292Q476 212 447.0 142.5Q418 73 363.5 31.0Q309 -11 231 -11Q165 -11 122.5 19.0Q80 49 59.5 100.0Q39 151 39 213Q39 294 68.5 362.0Q98 430 153.5 470.5Q209 511 286 511ZM271 474Q227 475 195.0 444.5Q163 414 145.5 362.0Q128 310 127 246Q126 212 131.0 174.0Q136 136 148.5 103.0Q161 70 183.5 49.0Q206 28 240 27Q280 26 308.0 48.5Q336 71 353.0 107.0Q370 143 378.5 184.0Q387 225 388 261Q389 296 384.5 333.0Q380 370 367.0 402.0Q354 434 331.0 453.5Q308 473 271 474Z"/></g>
<g transform="translate(129.76 0) scale(0.03748 -0.03748)"><path d="M473 -11Q426 -11 409.0 14.0Q392 39 392 85Q392 113 396.5 151.0Q401 189 407.5 232.0Q414 275 418.5 319.0Q423 363 423 403Q423 415 419.5 429.0Q416 443 406.0 453.5Q396 464 376 464Q348 464 320.0 438.0Q292 412 267.0 368.0Q242 324 222.0 270.5Q202 217 190.5 160.5Q179 104 179 53Q179 38 179.5 25.5Q180 13 181 0H97Q96 7 96.0 12.5Q96 18 96 26Q96 43 98.0 65.5Q100 88 104.5 125.5Q109 163 116 226Q123 285 126.5 318.0Q130 351 132.0 368.5Q134 386 134.5 395.5Q135 405 135 416Q135 434 130.0 447.5Q125 461 108 461Q92 461 71.0 439.0Q50 417 35 364L7 370Q10 388 19.5 411.5Q29 435 45.0 458.0Q61 481 84.0 496.0Q107 511 137 511Q171 511 187.5 492.5Q204 474 208.5 445.0Q213 416 211 383Q209 355 204.5 329.0Q200 303 196 283H199Q233 374 266.0 423.5Q299 473 331.5 492.0Q364 511 396 511Q436 511 460.0 493.0Q484 475 494.5 445.5Q505 416 505 381Q505 326 497.5 268.5Q490 211 482.5 162.5Q475 114 475 85Q475 67 479.5 53.0Q484 39 502 39Q519 39 539.5 60.5Q560 82 575 136L603 129Q600 112 590.5 88.0Q581 64 565.0 41.5Q549 19 526.0 4.0Q503 -11 473 -11Z"/></g>
<g transform="translate(162.66 0) scale(0.03748 -0.03748)"><path d="M217 641 199 500H358L355 462L195 460Q191 418 185.5 373.5Q180 329 176.0 285.0Q172 241 169.0 200.5Q166 160 166 127Q166 108 168.5 87.5Q171 67 181.0 53.5Q191 40 213 40Q223 40 237.5 44.0Q252 48 270.0 63.0Q288 78 307 110L333 93Q304 42 270.5 15.5Q237 -11 189 -11Q150 -11 127.5 5.5Q105 22 95.0 49.0Q85 76 85 107Q85 145 88.0 199.5Q91 254 97.0 320.5Q103 387 111 459L22 458L25 500Q94 500 127.0 537.0Q160 574 179 641Z"/></g>
<g transform="translate(176.31 0) scale(0.03748 -0.03748)"><path d="M64 -271Q30 -269 9.0 -251.5Q-12 -234 -12 -208Q-12 -185 2.0 -173.5Q16 -162 29 -162Q74 -162 72 -214Q78 -217 83.0 -219.0Q88 -221 94 -221Q116 -222 139.5 -205.0Q163 -188 184.5 -162.5Q206 -137 222.5 -112.5Q239 -88 247 -75Q238 -17 226.0 44.5Q214 106 198.5 167.5Q183 229 164.5 286.5Q146 344 125 395Q118 412 107.0 430.0Q96 448 76 446Q57 444 47.5 416.0Q38 388 42 342L10 338Q7 365 9.5 395.0Q12 425 22.0 451.5Q32 478 51.0 494.5Q70 511 101 511Q135 511 156.5 493.0Q178 475 191.5 449.0Q205 423 214 398Q233 347 251.0 281.0Q269 215 282.5 146.5Q296 78 303 19H305Q333 68 359.0 127.0Q385 186 402.0 247.5Q419 309 419 363Q419 388 414.5 407.0Q410 426 404 434Q400 431 393.5 429.5Q387 428 379 428Q361 428 350.0 439.5Q339 451 339 467Q339 489 353.5 500.0Q368 511 386 511Q417 511 434.0 492.0Q451 473 458.5 444.0Q466 415 466 383Q466 317 447.0 248.0Q428 179 397.5 112.0Q367 45 333 -17Q283 -107 237.5 -164.0Q192 -221 149.0 -246.5Q106 -272 64 -271Z"/></g>
<g transform="translate(195.57 0) scale(0.03748 -0.03748)"><path d="M42 -255V-225Q70 -225 81.5 -206.0Q93 -187 96.5 -155.5Q100 -124 103 -85Q110 1 117.5 81.5Q125 162 131.5 228.5Q138 295 142.0 342.0Q146 389 146 408Q146 428 142.5 444.5Q139 461 119 461Q103 461 82.5 439.0Q62 417 47 364L18 370Q21 388 30.5 411.5Q40 435 56.0 458.0Q72 481 95.0 496.0Q118 511 148 511Q193 511 208.5 479.5Q224 448 224 406Q224 376 219.5 345.5Q215 315 210 292H213Q241 384 270.5 431.0Q300 478 331.0 494.5Q362 511 391 511Q437 511 467.0 484.5Q497 458 511.5 414.0Q526 370 526 317Q526 220 492.5 146.0Q459 72 393.5 30.5Q328 -11 231 -11Q218 -11 206.5 -10.0Q195 -9 184 -8Q179 -84 176.5 -125.5Q174 -167 172.5 -186.5Q171 -206 168 -217Q184 -216 199.5 -215.5Q215 -215 231 -214V-255ZM248 23Q290 23 322.0 40.0Q354 57 376.5 85.5Q399 114 413.0 150.0Q427 186 433.5 224.5Q440 263 440 299Q440 345 434.0 382.5Q428 420 413.0 442.0Q398 464 370 464Q343 464 316.0 435.0Q289 406 266.0 357.5Q243 309 225.0 250.0Q207 191 198 130Q194 108 191.5 84.5Q189 61 187 35Q203 30 217.5 26.5Q232 23 248 23Z"/></g>
<g transform="translate(216.97 0) scale(0.03748 -0.03748)"><path d="M282 511Q318 511 350.0 500.0Q382 489 402.0 464.0Q422 439 422 396Q422 355 394.0 325.0Q366 295 321.0 275.5Q276 256 225.0 244.0Q174 232 127 227Q127 165 139.5 123.0Q152 81 177.0 60.0Q202 39 241 39Q270 39 299.5 52.0Q329 65 356.0 91.5Q383 118 405 160L438 141Q410 89 378.0 55.0Q346 21 308.0 5.0Q270 -11 224 -11Q129 -11 84.0 48.5Q39 108 39 205Q39 263 54.0 318.0Q69 373 99.0 416.5Q129 460 175.0 485.5Q221 511 282 511ZM268 477Q222 477 192.5 446.0Q163 415 147.5 366.0Q132 317 128 263Q181 270 229.0 288.0Q277 306 308.0 334.5Q339 363 339 401Q339 433 321.5 455.0Q304 477 268 477Z"/></g>
<g transform="translate(234.85 0) scale(0.03748 -0.03748)"><path d="M190 -11Q150 -11 113.0 1.5Q76 14 53.0 38.0Q30 62 30 96Q30 118 42.5 131.5Q55 145 73 145Q93 145 103.5 132.0Q114 119 114 103Q114 96 112.0 88.0Q110 80 105 72Q113 50 137.0 38.0Q161 26 188 26Q242 26 269.0 51.0Q296 76 296 121Q296 148 277.0 169.0Q258 190 229.0 208.5Q200 227 169 245Q140 263 113.5 282.0Q87 301 70.5 324.0Q54 347 54 376Q54 413 76.0 443.5Q98 474 137.0 492.5Q176 511 227 511Q265 511 298.5 499.0Q332 487 353.5 465.0Q375 443 375 413Q375 392 363.0 379.5Q351 367 333 367Q315 367 304.0 379.0Q293 391 293 407Q293 415 295.0 422.5Q297 430 302 438Q297 455 277.5 466.5Q258 478 224 478Q202 478 181.0 468.0Q160 458 146.0 440.5Q132 423 132 399Q132 380 143.5 364.0Q155 348 174.0 334.0Q193 320 215 306Q251 285 289.0 261.5Q327 238 352.5 208.0Q378 178 378 135Q378 93 354.5 60.0Q331 27 288.5 8.0Q246 -11 190 -11Z"/></g>
<g transform="translate(250.89 0) scale(0.03748 -0.03748)"><path d="M282 511Q318 511 350.0 500.0Q382 489 402.0 464.0Q422 439 422 396Q422 355 394.0 325.0Q366 295 321.0 275.5Q276 256 225.0 244.0Q174 232 127 227Q127 165 139.5 123.0Q152 81 177.0 60.0Q202 39 241 39Q270 39 299.5 52.0Q329 65 356.0 91.5Q383 118 405 160L438 141Q410 89 378.0 55.0Q346 21 308.0 5.0Q270 -11 224 -11Q129 -11 84.0 48.5Q39 108 39 205Q39 263 54.0 318.0Q69 373 99.0 416.5Q129 460 175.0 485.5Q221 511 282 511ZM268 477Q222 477 192.5 446.0Q163 415 147.5 366.0Q132 317 128 263Q181 270 229.0 288.0Q277 306 308.0 334.5Q339 363 339 401Q339 433 321.5 455.0Q304 477 268 477Z"/></g>
<g transform="translate(268.77 0) scale(0.03748 -0.03748)"><path d="M217 641 199 500H358L355 462L195 460Q191 418 185.5 373.5Q180 329 176.0 285.0Q172 241 169.0 200.5Q166 160 166 127Q166 108 168.5 87.5Q171 67 181.0 53.5Q191 40 213 40Q223 40 237.5 44.0Q252 48 270.0 63.0Q288 78 307 110L333 93Q304 42 270.5 15.5Q237 -11 189 -11Q150 -11 127.5 5.5Q105 22 95.0 49.0Q85 76 85 107Q85 145 88.0 199.5Q91 254 97.0 320.5Q103 387 111 459L22 458L25 500Q94 500 127.0 537.0Q160 574 179 641Z"/></g>
<g transform="translate(282.41 0) scale(0.03748 -0.03748)"><path d="M217 641 199 500H358L355 462L195 460Q191 418 185.5 373.5Q180 329 176.0 285.0Q172 241 169.0 200.5Q166 160 166 127Q166 108 168.5 87.5Q171 67 181.0 53.5Q191 40 213 40Q223 40 237.5 44.0Q252 48 270.0 63.0Q288 78 307 110L333 93Q304 42 270.5 15.5Q237 -11 189 -11Q150 -11 127.5 5.5Q105 22 95.0 49.0Q85 76 85 107Q85 145 88.0 199.5Q91 254 97.0 320.5Q103 387 111 459L22 458L25 500Q94 500 127.0 537.0Q160 574 179 641Z"/></g>
<g transform="translate(296.05 0) scale(0.03748 -0.03748)"><path d="M282 511Q318 511 350.0 500.0Q382 489 402.0 464.0Q422 439 422 396Q422 355 394.0 325.0Q366 295 321.0 275.5Q276 256 225.0 244.0Q174 232 127 227Q127 165 139.5 123.0Q152 81 177.0 60.0Q202 39 241 39Q270 39 299.5 52.0Q329 65 356.0 91.5Q383 118 405 160L438 141Q410 89 378.0 55.0Q346 21 308.0 5.0Q270 -11 224 -11Q129 -11 84.0 48.5Q39 108 39 205Q39 263 54.0 318.0Q69 373 99.0 416.5Q129 460 175.0 485.5Q221 511 282 511ZM268 477Q222 477 192.5 446.0Q163 415 147.5 366.0Q132 317 128 263Q181 270 229.0 288.0Q277 306 308.0 334.5Q339 363 339 401Q339 433 321.5 455.0Q304 477 268 477Z"/></g>
<g transform="translate(313.93 0) scale(0.03748 -0.03748)"><path d="M101 0Q100 7 100.0 12.5Q100 18 100 26Q100 43 101.0 66.5Q102 90 105.5 129.0Q109 168 116 231Q123 296 127.0 329.0Q131 362 133.0 377.5Q135 393 135 403Q136 423 132.5 442.0Q129 461 108 461Q92 461 71.0 439.0Q50 417 35 364L7 370Q10 388 19.5 411.5Q29 435 45.0 458.0Q61 481 84.0 496.0Q107 511 137 511Q182 511 197.0 480.0Q212 449 210 397Q209 375 204.5 348.5Q200 322 195 293H198Q227 380 258.5 427.0Q290 474 322.5 492.5Q355 511 387 511Q417 511 437.0 495.5Q457 480 457 453Q457 435 444.5 420.0Q432 405 411 405Q393 405 380.0 416.0Q367 427 365 447Q337 453 310.5 429.0Q284 405 260.5 360.5Q237 316 219.5 261.0Q202 206 192.0 149.0Q182 92 182 43Q182 28 182.5 20.5Q183 13 184 0Z"/></g>
<g transform="translate(340.84 0) scale(0.03748 -0.03748)"><path d="M316 760Q353 761 373.0 747.5Q393 734 393 708Q393 701 389.5 691.0Q386 681 377.0 674.5Q368 668 353 668Q334 668 323.0 682.0Q312 696 313 718Q310 720 301.0 721.5Q292 723 284 722Q260 720 244.5 702.5Q229 685 219.0 655.5Q209 626 203.0 586.5Q197 547 193 500H335L332 461L190 459Q189 433 187.5 406.0Q186 379 184.5 350.5Q183 322 181.0 293.5Q179 265 176 236Q169 163 163.0 90.5Q157 18 145.5 -47.0Q134 -112 112.0 -162.5Q90 -213 51.5 -242.0Q13 -271 -47 -271Q-85 -271 -105.0 -257.5Q-125 -244 -125 -219Q-125 -211 -121.0 -201.5Q-117 -192 -108.0 -184.5Q-99 -177 -84 -178Q-66 -179 -55.5 -191.5Q-45 -204 -45 -224Q-34 -232 -16 -232Q19 -232 37.5 -195.0Q56 -158 65.0 -92.5Q74 -27 79.5 59.5Q85 146 94 245Q96 272 98.0 299.0Q100 326 102.0 353.0Q104 380 106.5 406.5Q109 433 112 458L24 457L29 500H117Q128 573 149.0 631.0Q170 689 210.0 724.0Q250 759 316 760Z"/></g>
<g transform="translate(353.02 0) scale(0.03748 -0.03748)"><path d="M286 511Q340 511 383.0 485.5Q426 460 451.0 411.0Q476 362 476 292Q476 212 447.0 142.5Q418 73 363.5 31.0Q309 -11 231 -11Q165 -11 122.5 19.0Q80 49 59.5 100.0Q39 151 39 213Q39 294 68.5 362.0Q98 430 153.5 470.5Q209 511 286 511ZM271 474Q227 475 195.0 444.5Q163 414 145.5 362.0Q128 310 127 246Q126 212 131.0 174.0Q136 136 148.5 103.0Q161 70 183.5 49.0Q206 28 240 27Q280 26 308.0 48.5Q336 71 353.0 107.0Q370 143 378.5 184.0Q387 225 388 261Q389 296 384.5 333.0Q380 370 367.0 402.0Q354 434 331.0 453.5Q308 473 271 474Z"/></g>
<g transform="translate(372.55 0) scale(0.03748 -0.03748)"><path d="M101 0Q100 7 100.0 12.5Q100 18 100 26Q100 43 101.0 66.5Q102 90 105.5 129.0Q109 168 116 231Q123 296 127.0 329.0Q131 362 133.0 377.5Q135 393 135 403Q136 423 132.5 442.0Q129 461 108 461Q92 461 71.0 439.0Q50 417 35 364L7 370Q10 388 19.5 411.5Q29 435 45.0 458.0Q61 481 84.0 496.0Q107 511 137 511Q182 511 197.0 480.0Q212 449 210 397Q209 375 204.5 348.5Q200 322 195 293H198Q227 380 258.5 427.0Q290 474 322.5 492.5Q355 511 387 511Q417 511 437.0 495.5Q457 480 457 453Q457 435 444.5 420.0Q432 405 411 405Q393 405 380.0 416.0Q367 427 365 447Q337 453 310.5 429.0Q284 405 260.5 360.5Q237 316 219.5 261.0Q202 206 192.0 149.0Q182 92 182 43Q182 28 182.5 20.5Q183 13 184 0Z"/></g>
<g transform="translate(399.46 0) scale(0.03748 -0.03748)"><path d="M217 641 199 500H358L355 462L195 460Q191 418 185.5 373.5Q180 329 176.0 285.0Q172 241 169.0 200.5Q166 160 166 127Q166 108 168.5 87.5Q171 67 181.0 53.5Q191 40 213 40Q223 40 237.5 44.0Q252 48 270.0 63.0Q288 78 307 110L333 93Q304 42 270.5 15.5Q237 -11 189 -11Q150 -11 127.5 5.5Q105 22 95.0 49.0Q85 76 85 107Q85 145 88.0 199.5Q91 254 97.0 320.5Q103 387 111 459L22 458L25 500Q94 500 127.0 537.0Q160 574 179 641Z"/></g>
<g transform="translate(413.10 0) scale(0.03748 -0.03748)"><path d="M432 -11Q385 -11 368.0 14.0Q351 39 351 85Q351 113 355.5 151.5Q360 190 365.5 233.0Q371 276 375.5 320.0Q380 364 380 403Q380 415 376.0 429.0Q372 443 362.0 453.5Q352 464 332 464Q305 464 278.0 439.5Q251 415 226.5 373.0Q202 331 182.5 277.5Q163 224 152.0 166.5Q141 109 141 53Q141 38 141.5 25.5Q142 13 143 0H61Q60 7 60.0 12.5Q60 18 60 26Q60 53 63.0 109.0Q66 165 71.0 236.5Q76 308 82.5 383.0Q89 458 96.0 525.5Q103 593 110 639Q114 665 115.5 672.0Q117 679 119 692L49 688L53 728Q97 728 121.5 732.0Q146 736 159.0 742.0Q172 748 180 755H209Q205 730 200.0 699.0Q195 668 190.0 638.0Q185 608 182 585Q179 560 174.5 520.5Q170 481 165.5 437.5Q161 394 157.5 354.0Q154 314 152 288H155Q189 379 222.0 427.0Q255 475 287.5 493.0Q320 511 352 511Q412 511 437.0 472.5Q462 434 462 381Q462 326 455.0 268.5Q448 211 441.0 162.5Q434 114 434 85Q434 67 438.5 53.0Q443 39 461 39Q478 39 498.5 60.5Q519 82 534 136L559 129Q556 112 547.0 88.0Q538 64 522.5 41.5Q507 19 484.5 4.0Q462 -11 432 -11Z"/></g>
<g transform="translate(434.54 0) scale(0.03748 -0.03748)"><path d="M282 511Q318 511 350.0 500.0Q382 489 402.0 464.0Q422 439 422 396Q422 355 394.0 325.0Q366 295 321.0 275.5Q276 256 225.0 244.0Q174 232 127 227Q127 165 139.5 123.0Q152 81 177.0 60.0Q202 39 241 39Q270 39 299.5 52.0Q329 65 356.0 91.5Q383 118 405 160L438 141Q410 89 378.0 55.0Q346 21 308.0 5.0Q270 -11 224 -11Q129 -11 84.0 48.5Q39 108 39 205Q39 263 54.0 318.0Q69 373 99.0 416.5Q129 460 175.0 485.5Q221 511 282 511ZM268 477Q222 477 192.5 446.0Q163 415 147.5 366.0Q132 317 128 263Q181 270 229.0 288.0Q277 306 308.0 334.5Q339 363 339 401Q339 433 321.5 455.0Q304 477 268 477Z"/></g>
<g transform="translate(462.28 0) scale(0.03748 -0.03748)"><path d="M101 0Q100 7 100.0 12.5Q100 18 100 26Q100 43 101.0 66.5Q102 90 105.5 129.0Q109 168 116 231Q123 296 127.0 329.0Q131 362 133.0 377.5Q135 393 135 403Q136 423 132.5 442.0Q129 461 108 461Q92 461 71.0 439.0Q50 417 35 364L7 370Q10 388 19.5 411.5Q29 435 45.0 458.0Q61 481 84.0 496.0Q107 511 137 511Q182 511 197.0 480.0Q212 449 210 397Q209 375 204.5 348.5Q200 322 195 293H198Q227 380 258.5 427.0Q290 474 322.5 492.5Q355 511 387 511Q417 511 437.0 495.5Q457 480 457 453Q457 435 444.5 420.0Q432 405 411 405Q393 405 380.0 416.0Q367 427 365 447Q337 453 310.5 429.0Q284 405 260.5 360.5Q237 316 219.5 261.0Q202 206 192.0 149.0Q182 92 182 43Q182 28 182.5 20.5Q183 13 184 0Z"/></g>
<g transform="translate(479.33 0) scale(0.03748 -0.03748)"><path d="M282 511Q318 511 350.0 500.0Q382 489 402.0 464.0Q422 439 422 396Q422 355 394.0 325.0Q366 295 321.0 275.5Q276 256 225.0 244.0Q174 232 127 227Q127 165 139.5 123.0Q152 81 177.0 60.0Q202 39 241 39Q270 39 299.5 52.0Q329 65 356.0 91.5Q383 118 405 160L438 141Q410 89 378.0 55.0Q346 21 308.0 5.0Q270 -11 224 -11Q129 -11 84.0 48.5Q39 108 39 205Q39 263 54.0 318.0Q69 373 99.0 416.5Q129 460 175.0 485.5Q221 511 282 511ZM268 477Q222 477 192.5 446.0Q163 415 147.5 366.0Q132 317 128 263Q181 270 229.0 288.0Q277 306 308.0 334.5Q339 363 339 401Q339 433 321.5 455.0Q304 477 268 477Z"/></g>
<g transform="translate(497.21 0) scale(0.03748 -0.03748)"><path d="M329 511Q359 511 395.0 506.5Q431 502 463 494Q455 434 447.5 374.5Q440 315 433.5 261.5Q427 208 423.0 165.5Q419 123 419 99Q419 79 422.0 59.0Q425 39 447 39Q464 39 484.5 61.0Q505 83 520 136L548 130Q545 112 535.5 88.5Q526 65 510.0 42.0Q494 19 471.0 4.0Q448 -11 418 -11Q378 -11 361.0 14.0Q344 39 344 79Q344 108 349.5 142.0Q355 176 362 213H359Q335 139 309.5 94.5Q284 50 258.5 27.0Q233 4 209.0 -3.5Q185 -11 164 -11Q110 -11 73.5 29.0Q37 69 37 163Q37 233 55.0 296.0Q73 359 109.5 407.5Q146 456 201.0 483.5Q256 511 329 511ZM298 475Q253 475 219.5 450.0Q186 425 164.0 382.5Q142 340 131.5 287.5Q121 235 121 180Q121 116 135.0 74.5Q149 33 186 33Q213 33 240.5 60.0Q268 87 292.0 132.5Q316 178 335.0 234.5Q354 291 365.0 350.0Q376 409 376 463Q361 469 341.0 472.0Q321 475 298 475Z"/></g>
<g transform="translate(517.75 0) scale(0.03748 -0.03748)"><path d="M173 -11Q127 -11 97.0 14.5Q67 40 52.5 83.5Q38 127 38 179Q38 277 70.5 351.5Q103 426 168.0 468.5Q233 511 329 511Q344 511 358.0 510.0Q372 509 385 507Q389 543 393.5 579.5Q398 616 402.5 646.5Q407 677 411 692Q393 691 374.5 690.0Q356 689 338 688L342 728Q386 728 410.5 732.0Q435 736 448.0 742.0Q461 748 469 755H498Q489 701 479.5 623.5Q470 546 456 427Q449 363 442.5 299.5Q436 236 431.5 182.0Q427 128 427 92Q427 73 431.0 56.0Q435 39 454 39Q471 39 491.0 61.0Q511 83 526 136L555 130Q552 112 542.5 88.5Q533 65 517.0 42.0Q501 19 478.0 4.0Q455 -11 425 -11Q385 -11 366.5 14.0Q348 39 348 79Q348 108 352.0 139.5Q356 171 363 208H360Q333 117 300.5 69.5Q268 22 235.5 5.5Q203 -11 173 -11ZM194 36Q226 36 257.5 72.0Q289 108 315.0 166.0Q341 224 355 289Q363 324 368.5 367.0Q374 410 380 465Q364 471 346.5 473.0Q329 475 312 475Q270 475 238.5 458.0Q207 441 185.0 412.0Q163 383 149.5 347.0Q136 311 130.0 272.0Q124 233 124 196Q124 128 139.5 82.0Q155 36 194 36Z"/></g>
<g transform="translate(538.55 0) scale(0.03748 -0.03748)"><path d="M282 511Q318 511 350.0 500.0Q382 489 402.0 464.0Q422 439 422 396Q422 355 394.0 325.0Q366 295 321.0 275.5Q276 256 225.0 244.0Q174 232 127 227Q127 165 139.5 123.0Q152 81 177.0 60.0Q202 39 241 39Q270 39 299.5 52.0Q329 65 356.0 91.5Q383 118 405 160L438 141Q410 89 378.0 55.0Q346 21 308.0 5.0Q270 -11 224 -11Q129 -11 84.0 48.5Q39 108 39 205Q39 263 54.0 318.0Q69 373 99.0 416.5Q129 460 175.0 485.5Q221 511 282 511ZM268 477Q222 477 192.5 446.0Q163 415 147.5 366.0Q132 317 128 263Q181 270 229.0 288.0Q277 306 308.0 334.5Q339 363 339 401Q339 433 321.5 455.0Q304 477 268 477Z"/></g>
<g transform="translate(556.43 0) scale(0.03748 -0.03748)"><path d="M101 0Q100 7 100.0 12.5Q100 18 100 26Q100 43 101.0 66.5Q102 90 105.5 129.0Q109 168 116 231Q123 296 127.0 329.0Q131 362 133.0 377.5Q135 393 135 403Q136 423 132.5 442.0Q129 461 108 461Q92 461 71.0 439.0Q50 417 35 364L7 370Q10 388 19.5 411.5Q29 435 45.0 458.0Q61 481 84.0 496.0Q107 511 137 511Q182 511 197.0 480.0Q212 449 210 397Q209 375 204.5 348.5Q200 322 195 293H198Q227 380 258.5 427.0Q290 474 322.5 492.5Q355 511 387 511Q417 511 437.0 495.5Q457 480 457 453Q457 435 444.5 420.0Q432 405 411 405Q393 405 380.0 416.0Q367 427 365 447Q337 453 310.5 429.0Q284 405 260.5 360.5Q237 316 219.5 261.0Q202 206 192.0 149.0Q182 92 182 43Q182 28 182.5 20.5Q183 13 184 0Z"/></g>
<g transform="translate(573.48 0) scale(0.03748 -0.03748)"><path d="M105 110Q129 110 144.0 91.5Q159 73 157 47Q156 20 138.0 2.0Q120 -16 97 -16Q74 -16 58.0 2.0Q42 20 43 47Q45 73 63.5 91.5Q82 110 105 110Z"/></g>
</g>
</svg>
